<?xml version="1.0" encoding="UTF-8"?>
<svg id="Layer_3" data-name="Layer 3" xmlns="http://www.w3.org/2000/svg" viewBox="0 0 1195.49 307.15">
    <defs>
        <style>
            .cls-1, .cls-2, .cls-3, .cls-4 {
            stroke-width: 0px;
            }

            .cls-2, .cls-5 {
            fill: #fff;
            }

            .cls-6, .cls-7, .cls-5 {
            stroke-width: 14.95px;
            }

            .cls-6, .cls-7, .cls-5, .cls-8 {
            stroke: #000;
            }

            .cls-6, .cls-5, .cls-8 {
            stroke-miterlimit: 10;
            }

            .cls-6, .cls-8 {
            fill: none;
            }

            .cls-3 {
            fill: #f92f00;
            }

            .cls-7 {
            fill: #00c349;
            stroke-linecap: round;
            stroke-linejoin: round;
            }

            .cls-4 {
            fill: #2ab539;
            }

            .cls-8 {
            stroke-width: 10.68px;
            }
        </style>
    </defs>
    <g>
        <path class="cls-4" d="m278.51,307.15c-47.3,0-88.05-14.29-117.81-41.33-27.44-24.93-43.21-58.83-44.71-95.87-11.11-39.32-6.06-75.02,15.01-106.14,15.91-23.51,49.87-51.51,97.44-59.61,16.34-2.78,31.87-4.19,46.17-4.19,27.28,0,74.59,5.74,104.02,41.57,17.05,2.22,30.43,4.48,35.96,5.84,21.43,5.25,35.03,20.08,36.37,39.68,1.6,23.36-17,47.47-33.8,62.54,4.13,42.45-4.97,79.5-26.27,105.69-27.18,33.42-67.09,51.83-112.38,51.83Z"/>
        <g>
            <path class="cls-7" d="m145.51,165.18c-3-10.19-15.4-47.15,10.05-84.75,12.94-19.11,40.55-40.64,77.85-46.99,122.29-20.81,136.24,51.03,136.24,57.79l-224.14,73.96Z"/>
            <path class="cls-5" d="m146.34,150.25c2.35-19.51,23.26-30.37,39.67-36.41,25.5-9.38,53.95-19.1,80.97-19.25,26.7-.15,53.92,4.2,79.74,11.64,34.93,10.07,38.38,28.71,38.38,28.71,3.23,17.21,10.66,67.36-17.23,101.65-19.92,24.5-50.48,40.88-89.36,40.88-91.16,0-140.13-61.16-132.17-127.23Z"/>
            <path class="cls-3" d="m385.39,136.56c9.28-3.66,60.01-51.06,22.13-60.33-17.23-4.22-186.95-29.45-218.29,9.27-9.28,11.46-27.43,33.91-33.67,47.4,66.88-21.81,117.73-35.47,190.1-18.82,19.46,4.48,31.53,12.42,39.74,22.48Z"/>
            <path class="cls-1" d="m217.43,203.42c13.49,14.81,32.75,23.44,52.24,26.9,9.5,1.69,19.19,2.34,28.82,1.76,8.73-.53,17.54-1.93,25.83-4.77,7.58-2.59,15.28-6.35,20.73-12.4,1.56-1.73,1.83-4.61,0-6.29-1.7-1.56-4.63-1.85-6.29,0-.98,1.09-2.05,2.1-3.19,3.04-.15.13-.31.25-.47.38-.51.42.42-.32.42-.32-.34.21-.66.49-.99.73-.66.47-1.33.91-2.01,1.34-1.41.88-2.86,1.68-4.35,2.41-.76.37-1.54.72-2.32,1.07-1.1.49.86-.34-.25.11-.52.21-1.05.42-1.57.62-3.61,1.36-7.33,2.42-11.09,3.24-1.97.43-3.95.79-5.94,1.1-.56.08-1.12.14-1.67.24,1.45-.25-.21.02-.51.06-1.14.14-2.29.25-3.43.35-4.44.39-8.91.51-13.36.38-2.35-.07-4.69-.21-7.03-.41-1.03-.09-2.05-.19-3.07-.31-.6-.07-1.26-.08-1.85-.23,1.2.3.24.03-.05,0-.31-.04-.62-.09-.92-.13-4.64-.7-9.25-1.67-13.77-2.95-2.32-.65-4.61-1.38-6.88-2.2-1.08-.39-2.16-.8-3.23-1.22-.48-.19-.98-.37-1.45-.59,1.1.51.12.05-.09-.04-.29-.12-.57-.25-.86-.38-4.84-2.16-9.5-4.75-13.85-7.78-.51-.36-1.02-.72-1.52-1.09-.25-.18-.5-.37-.75-.56-.17-.12-.33-.25-.5-.38.49.38.54.42.16.12-.97-.78-1.94-1.56-2.88-2.38-2.04-1.78-3.97-3.68-5.8-5.68-1.57-1.72-4.72-1.71-6.29,0-1.69,1.84-1.68,4.45,0,6.29h0Z"/>
            <ellipse class="cls-1" cx="341.9" cy="164.65" rx="9.11" ry="12.23"/>
            <ellipse class="cls-1" cx="260.62" cy="163.24" rx="9.98" ry="13.06"/>
        </g>
        <path class="cls-2" d="m70.46,153.12v7.71c0,1.27-1.34,2.35-3.11,2.5l-61.97,5.38C2.52,168.96,0,167.37,0,165.31v-16.68C0,146.58,2.52,144.99,5.38,145.24l61.97,5.38c1.78.15,3.11,1.23,3.11,2.5Z"/>
        <path class="cls-2" d="m108.86,226.86v7.17c0,1.18-1.13,2.18-2.63,2.33l-52.46,5c-2.42.23-4.56-1.25-4.56-3.16v-15.5c0-1.91,2.13-3.39,4.56-3.16l52.46,5c1.5.14,2.63,1.14,2.63,2.33Z"/>
        <path class="cls-2" d="m92.58,89.16l-.25,7.16c-.04,1.18-1.07,2.15-2.39,2.24l-46.1,3.36c-2.13.16-3.94-1.39-3.87-3.3l.55-15.49c.07-1.91,1.99-3.32,4.1-3.01l45.74,6.63c1.31.19,2.26,1.22,2.22,2.41Z"/>
        <path class="cls-8" d="m155.56,132.89c66.88-21.81,117.73-35.47,190.1-18.82,19.46,4.48,31.53,12.42,39.74,22.48"/>
        <path class="cls-6" d="m385.39,136.56c9.28-3.66,60.01-51.06,22.13-60.33-17.23-4.22-186.95-29.45-218.29,9.27-9.28,11.46-27.43,33.91-33.67,47.4"/>
    </g>
    <g>
        <path class="cls-2" d="m616.39,130.07h-43.87c-4.64,0-8.4,3.76-8.4,8.4v34.48c0,4.64,3.76,8.4,8.4,8.4h41.1c-8.97,12.32-23.72,20.18-40.24,19.51-24.52-.99-44.37-20.87-45.33-45.39-1.06-26.96,20.56-49.22,47.29-49.22,10.31,0,19.85,3.32,27.63,8.93,2.81,2.03,6.22,3.08,9.69,3.08h43.36c6.39,0,10.41-6.83,7.36-12.45-17.1-31.46-50.56-52.74-88.98-52.39-55.21.51-99.33,45.15-99.22,100.36.11,55.22,44.91,99.95,100.16,99.95s100.16-44.84,100.16-100.16c0-5.61-.47-11.11-1.37-16.46-.68-4.06-4.18-7.04-8.29-7.04h-49.45Z"/>
        <g>
            <rect class="cls-2" x="685.91" y="56.09" width="56.09" height="194.97" rx="8.4" ry="8.4"/>
            <path class="cls-2" d="m805.66,64.49v51.58c0,4.64-3.76,8.4-8.4,8.4h-35.07c-4.64,0-8.4,3.76-8.4,8.4v39.82c0,4.64,3.76,8.4,8.4,8.4h35.07c4.64,0,8.4,3.76,8.4,8.4v53.18c0,4.64,3.76,8.4,8.4,8.4h39.29c4.64,0,8.4-3.76,8.4-8.4V64.49c0-4.64-3.76-8.4-8.4-8.4h-39.29c-4.64,0-8.4,3.76-8.4,8.4Z"/>
        </g>
        <g>
            <path class="cls-2" d="m959.06,56.09h-75.83c-4.64,0-8.4,3.76-8.4,8.4v34.75c0,4.64,3.76,8.4,8.4,8.4h37.17c1.87,0,3.51-1.23,4.02-3.03,5.12-17.93,16.11-35.04,35.56-44.61,1.96-.96,1.25-3.91-.93-3.91Z"/>
            <path class="cls-2" d="m1187.08,56.09h-40.11c-5.52,0-10.68,2.71-13.82,7.24l-35.39,51.17c-.47.68-1.53.35-1.53-.48v-49.54c0-4.64-3.76-8.4-8.4-8.4h-83.21c-39.57,0-71.64,32.07-71.64,71.64v3.6h0v111.34c0,4.64,3.76,8.4,8.4,8.4h36.62c4.64,0,8.4-3.76,8.4-8.4v-115.99c0-10.51,8.52-19.03,19.03-19.03h30.51c2.32,0,4.2,1.88,4.2,4.2v130.83c0,4.64,3.76,8.4,8.4,8.4h39.29c4.64,0,8.4-3.76,8.4-8.4v-49.54c0-.82,1.06-1.16,1.53-.48l35.39,51.17c3.14,4.54,8.3,7.24,13.82,7.24h40.11c6.77,0,10.76-7.59,6.92-13.16l-51.53-74.79c-3.95-5.74-3.95-13.32,0-19.06l51.53-74.79c3.84-5.57-.15-13.16-6.92-13.16Z"/>
        </g>
        <rect class="cls-2" x="685.91" y="56.09" width="56.09" height="194.97" rx="8.4" ry="8.4"/>
    </g>
</svg>
